<?xml version="1.0" encoding="utf-8"?>
<!-- Generator: Adobe Illustrator 24.0.2, SVG Export Plug-In . SVG Version: 6.00 Build 0)  -->
<svg version="1.1" xmlns="http://www.w3.org/2000/svg" xmlns:xlink="http://www.w3.org/1999/xlink" x="0px" y="0px"
	 viewBox="0 0 500 500" style="enable-background:new 0 0 500 500;" xml:space="preserve">
<style type="text/css">
	.st0{fill:#FFFFFF;}
	.st1{fill:#767285;}
	.st2{fill:#B8B3CF;}
	.st3{fill:#968FB0;}
	.st4{fill:none;stroke:#424874;stroke-width:2;stroke-linecap:round;stroke-miterlimit:10;}
	.st5{fill:#424874;}
	.st6{fill:#DCD6F7;}
	.st7{fill:#A6B1E1;}
	.st8{opacity:0.5;fill:#DCD6F7;}
	.st9{fill:#23263D;}
	.st10{fill:#784940;}
	.st11{fill:#616885;}
	.st12{opacity:0.5;fill:#784940;}
	.st13{fill:#59362F;}
	.st14{opacity:0.4;fill:#59362F;}
	.st15{fill:#97BDFF;}
	.st16{fill:#F4EEFF;}
	.st17{fill:#22242E;}
	.st18{fill:#FFFFFF;stroke:#000000;stroke-miterlimit:10;}
	.st19{fill:#7E86AB;}
	.st20{fill:#212121;}
	.st21{fill:none;stroke:#C1BCD9;stroke-miterlimit:10;}
	.st22{fill:#C1BCD9;}
	.st23{fill:none;stroke:#FFFFFF;stroke-miterlimit:10;}
	.st24{fill:none;stroke:#FFFFFF;stroke-width:4;stroke-linecap:round;stroke-miterlimit:10;}
	.st25{fill:none;stroke:#DCD6F7;stroke-miterlimit:10;}
</style>
<g id="BACKGROUND">
	<rect class="st0" width="500" height="500"/>
</g>
<g id="OBJECTS">
	<g>
		<g>
			<rect x="236" y="188.4" class="st1" width="27.9" height="33.5"/>
			<rect x="229.5" y="178.3" class="st2" width="41.1" height="10.1"/>
			
				<rect x="292.5" y="205.6" transform="matrix(0.8308 0.5566 -0.5566 0.8308 175.5972 -132.9247)" class="st1" width="27.9" height="33.5"/>
			
				<rect x="298" y="199.2" transform="matrix(0.8308 0.5566 -0.5566 0.8308 167.5699 -142.7411)" class="st2" width="41.1" height="10.1"/>
			
				<rect x="179.6" y="205.6" transform="matrix(-0.8308 0.5566 -0.5566 -0.8308 478.1438 299.3578)" class="st1" width="27.9" height="33.5"/>
			
				<rect x="160.9" y="199.2" transform="matrix(-0.8308 0.5566 -0.5566 -0.8308 445.8517 272.9525)" class="st2" width="41.1" height="10.1"/>
			
				<ellipse transform="matrix(0.7071 -0.7071 0.7071 0.7071 -145.0959 267.2075)" class="st2" cx="250" cy="308.7" rx="110.6" ry="110.6"/>
			<circle class="st0" cx="250" cy="308.8" r="95.7"/>
			<g>
				<circle class="st3" cx="250" cy="224.7" r="4.6"/>
				<path class="st3" d="M254.6,392.8c0,2.5-2,4.6-4.6,4.6c-2.5,0-4.6-2-4.6-4.6c0-2.5,2-4.6,4.6-4.6
					C252.5,388.2,254.6,390.2,254.6,392.8z"/>
			</g>
			<g>
				<circle class="st3" cx="334" cy="308.8" r="4.6"/>
				<circle class="st3" cx="166" cy="308.8" r="4.6"/>
			</g>
			<g>
				<line class="st4" x1="312.6" y1="246.1" x2="303.1" y2="255.6"/>
				<line class="st4" x1="196.9" y1="361.9" x2="187.4" y2="371.4"/>
			</g>
			<g>
				<line class="st4" x1="187.4" y1="246.1" x2="196.9" y2="255.6"/>
				<line class="st4" x1="303.1" y1="361.9" x2="312.6" y2="371.4"/>
			</g>
			<path class="st5" d="M245,303.5l50-37.5l-40,48c-2.8,3.4-7.9,3.5-10.9,0.4l0,0C241,311.2,241.5,306.2,245,303.5z"/>
		</g>
		<g>
			<path class="st1" d="M195.3,158.5H56.9c-1.7,0-3.1-1.4-3.1-3.1v-0.6c0-1.7,1.4-3.1,3.1-3.1h138.4c1.7,0,3.1,1.4,3.1,3.1v0.6
				C198.4,157.1,197,158.5,195.3,158.5z"/>
			<path class="st1" d="M195.3,419.4H56.9c-1.7,0-3.1-1.4-3.1-3.1v-0.6c0-1.7,1.4-3.1,3.1-3.1h138.4c1.7,0,3.1,1.4,3.1,3.1v0.6
				C198.4,418,197,419.4,195.3,419.4z"/>
			<path class="st6" d="M173,334.7c-5.7-9.2-13.1-15.5-21.4-22.3c-6.1-5-21.1-17.3-20.6-26.9c-0.4-9.5,14.6-21.8,20.6-26.9
				c8.2-6.8,15.7-13.1,21.4-22.3c5.5-8.9,9.2-18.8,11.7-28.9c0.8-3,7.7-49,5.8-49c0,0-64.4,0-64.4,0s-64.4,0-64.4,0
				c-1.9,0,5.1,46,5.8,49c2.6,10.1,6.2,20,11.7,28.9c5.7,9.2,13.1,15.5,21.4,22.3c6.1,5,21.1,17.3,20.6,26.9
				c0.4,9.5-14.6,21.8-20.6,26.9c-8.2,6.8-15.7,13.1-21.4,22.3c-5.5,8.9-9.2,18.8-11.7,28.9c-0.8,3-7.7,49-5.8,49c0,0,64.4,0,64.4,0
				s64.4,0,64.4,0c1.9,0-5.1-46-5.8-49C182.1,353.5,178.5,343.6,173,334.7z"/>
			<path class="st7" d="M150.1,254.5c7.7-6.5,14.7-12.5,20-21.4c5.2-8.5,8.6-18,11-27.7c0.2-0.7,0.6-3.4,1.2-7.4
				c-5.2-0.2-10.4,0.3-15.5,1c-9.6,1.4-19.1,3.8-28.8,4.1c-13.8,0.4-27.4-3.3-40.7-7c-9.7-2.7-19.3-5.3-29-8
				c1.2,8.7,2.4,16.1,2.7,17.3c2.4,9.7,5.8,19.2,11,27.7c5.4,8.8,12.3,14.9,20,21.4c5.7,4.8,22.3,16.6,21.9,25.7v71.9
				c-40.3,1.9-50.8,60.6-50.8,60.6h52.8h52.8c0,0-10.4-58.6-50.8-60.6v-71.9C127.7,271,144.4,259.3,150.1,254.5z"/>
			<path class="st6" d="M83.1,363.6c2.6-10.1,6.2-20,11.7-28.9c5.7-9.2,13.1-15.5,21.4-22.3c4.3-3.6,13.1-10.8,17.7-18.1
				c-1.9-3-3-6-2.9-8.7c-0.1-2.8,1.1-5.7,2.9-8.7c-4.6-7.3-13.4-14.6-17.7-18.1c-8.2-6.8-15.7-13.1-21.4-22.3
				c-5.5-8.9-9.2-18.8-11.7-28.9c-0.8-3-7.7-49-5.8-49c-9,0-15.6,0-15.6,0c-1.9,0,5.1,46,5.8,49c2.6,10.1,6.2,20,11.7,28.9
				c5.7,9.2,13.1,15.5,21.4,22.3c6.1,5,21.1,17.3,20.6,26.9c0.4,9.5-14.6,21.8-20.6,26.9c-8.2,6.8-15.7,13.1-21.4,22.3
				c-5.5,8.9-9.2,18.8-11.7,28.9c-0.8,3-7.7,49-5.8,49c0,0,6.6,0,15.6,0C75.4,412.6,82.3,366.6,83.1,363.6z"/>
			<path class="st8" d="M173,334.7c-5.7-9.2-13.1-15.5-21.4-22.3c-6.1-5-21.1-17.3-20.6-26.9c-0.4-9.5,14.6-21.8,20.6-26.9
				c8.2-6.8,15.7-13.1,21.4-22.3c5.5-8.9,9.2-18.8,11.7-28.9c0.8-3,7.7-49,5.8-49c0,0-0.9,0-2.5,0c1.9,0-5.1,46-5.8,49
				c-2.6,10.1-6.2,20-11.7,28.9c-5.7,9.2-13.1,15.5-21.4,22.3c-6.1,5-21.1,17.3-20.6,26.9c-0.4,9.5,14.6,21.8,20.6,26.9
				c8.2,6.8,15.7,13.1,21.4,22.3c5.5,8.9,9.2,18.8,11.7,28.9c0.8,3,7.7,49,5.8,49c1.6,0,2.5,0,2.5,0c1.9,0-5.1-46-5.8-49
				C182.1,353.5,178.5,343.6,173,334.7z"/>
		</g>
		<rect x="34" y="419.4" class="st3" width="432" height="5.5"/>
		<g>
			<path class="st9" d="M402,359.3h-45c-1.9,0-3.4-1.5-3.4-3.4v-1.1c0-1.9,1.5-3.4,3.4-3.4h45c1.9,0,3.4,1.5,3.4,3.4v1.1
				C405.4,357.8,403.9,359.3,402,359.3z"/>
			<polygon class="st5" points="361.5,359.3 352.4,419.4 355,419.4 367.4,359.3 			"/>
			<polygon class="st5" points="397.5,359.3 406.7,419.4 404,419.4 391.6,359.3 			"/>
		</g>
		<g>
			<path class="st10" d="M355.7,252.9c0,1.7-1.4,3-3,3c-1.7,0-3-1.4-3-3s1.4-3,3-3C354.3,249.9,355.7,251.2,355.7,252.9z"/>
			<polygon class="st11" points="377,256.2 358.8,260.7 368.1,270.9 			"/>
			<path class="st10" d="M373.8,248.8l2,9.4l24.9,7.6c4.1,1.2,7.1,4.6,8,8.7l9.6,44.2c0.8,3.9-2.1,7.5-6.1,7.5h-81l9.1-50.5
				c0.8-3.7,3.3-6.8,6.8-8.2l20.8-8.8l1.4-10H373.8z"/>
			<path class="st12" d="M366.2,263.3L366.2,263.3c4.6-0.9,8-4.4,8.8-8.7l-1.2-5.8h-4.6l-1.4,10l-8.6,3.6
				C361.3,263.4,363.8,263.8,366.2,263.3z"/>
			<polygon class="st13" points="336.1,299.3 346.6,299.3 349.8,326.2 331.2,326.2 			"/>
			<polygon class="st14" points="345.2,299.3 342.8,326.2 349.8,326.2 346.6,299.3 			"/>
			<path class="st15" d="M357.9,262.9l10.2,8l10-12l23.4,7.1c3.6,1.1,6.4,3.9,7.6,7.4l8.5,25.3h-21.7l4.2,17l-37.3,1.6v8.8h-13.2
				l-3.1-26.9h-14.3l5.4-22.7c0.8-3.6,3.3-6.5,6.7-7.9L357.9,262.9z"/>
			<polygon class="st7" points="395.2,294.6 395.2,316 400.3,315.8 			"/>
			<polygon class="st16" points="346.6,299.3 332.3,299.3 333.2,295.6 346.2,295.6 			"/>
			<g>
				<path class="st17" d="M368.1,270.9c0.6,3.8,1.1,7.7,1.6,11.5c0.5,3.8,0.9,7.7,1.4,11.6c0.4,3.9,0.8,7.7,1.1,11.6l0.5,5.8
					c0.1,1.9,0.3,3.9,0.4,5.8c-0.3-1.9-0.6-3.8-0.9-5.8l-0.8-5.8c-0.5-3.8-0.9-7.7-1.4-11.6c-0.4-3.9-0.8-7.7-1.1-11.6
					C368.7,278.6,368.4,274.8,368.1,270.9z"/>
			</g>
			<polygon class="st10" points="363,317.4 348.6,314.7 332,322.2 363,322.2 			"/>
			<polygon class="st18" points="333.6,314.7 300.7,318.2 300.7,326.2 331.2,326.2 			"/>
			<polygon class="st6" points="341.6,322.2 286.2,322.2 276.9,284.3 332.2,284.3 			"/>
			<rect x="286.2" y="322.2" class="st3" width="85.9" height="4"/>
			<g>
				<path class="st17" d="M348.6,314.7c-0.5-2.1-0.8-4.2-1.2-6.4c-0.4-2.1-0.6-4.3-0.9-6.4c-0.3-2.1-0.5-4.3-0.7-6.4l-0.3-3.2
					c0-1.1-0.1-2.1-0.2-3.2c0.2,1.1,0.4,2.1,0.6,3.2l0.5,3.2c0.4,2.1,0.6,4.3,0.9,6.4c0.3,2.1,0.5,4.3,0.7,6.4
					C348.4,310.4,348.5,312.5,348.6,314.7z"/>
			</g>
			<polygon class="st16" points="368.1,270.9 364.2,275.8 357.9,262.9 358.8,260.7 			"/>
			<polygon class="st16" points="368.1,270.9 374,275.8 378.2,258.9 377,256.2 			"/>
			<polygon class="st16" points="395.2,294.6 416.4,294.6 417.8,298.7 396.1,298.7 			"/>
			<g>
				<path class="st9" d="M382.6,330.9l2.4,11.4c1,4.8-2.6,9.2-7.5,9.2h-50.9l5.8,54.5h-14.2l-17.4-62.1c-1.8-6.6,3.1-13,9.9-13
					H382.6z"/>
				<path class="st5" d="M406.5,330.9l2.4,11.4c1,4.8-2.6,9.2-7.5,9.2h-50.9l5.8,54.5H342l-17.4-62.1c-1.8-6.6,3.1-13,9.9-13H406.5z
					"/>
			</g>
			<polygon class="st19" points="318.2,406 293.5,419.4 335.8,419.4 332.4,406 			"/>
			<polygon class="st7" points="342,406 317.4,419.4 359.7,419.4 356.2,406 			"/>
			<path class="st10" d="M377.6,246.6c0,1.7-1.4,3-3,3c-0.2,0-0.4,0-0.6-0.1c0-0.3-0.1-0.6-0.1-0.9l-0.9-4.6c0.5-0.3,1-0.5,1.6-0.5
				C376.3,243.6,377.6,245,377.6,246.6z"/>
			<path class="st10" d="M365,261.7L365,261.7c-6,1.1-11.8-2.8-13-8.9l-1.6-8.3c-1.1-6,2.8-11.8,8.9-13h0c6-1.1,11.8,2.8,13,8.9
				l1.6,8.3C375,254.8,371,260.6,365,261.7z"/>
			<path class="st20" d="M373.6,247.4l-2.9-4.8l-0.6-4.2c0,0-5.5,3.4-13.6,1.2c0,0-1.8,3.7-6.1,4.9l1.1,2.1l0.5,6.2
				c0,0-3.8-6-4.4-9.9c-0.6-3.8,0.8-9.6,3.8-11.4c0,0,6.2-8.9,16.5-3.2C378.2,234.3,373.6,247.4,373.6,247.4z"/>
			<g>
				<path class="st17" d="M400.3,315.8c-0.8-2.4-1.5-4.9-2.1-7.3c-0.7-2.4-1.3-4.9-1.9-7.4c-0.6-2.5-1.1-4.9-1.6-7.4l-0.7-3.7
					c-0.2-1.3-0.5-2.5-0.6-3.8c0.4,1.2,0.7,2.4,1.1,3.6l1,3.7c0.7,2.4,1.3,4.9,1.9,7.4c0.6,2.5,1.1,4.9,1.6,7.4
					C399.4,310.8,399.9,313.3,400.3,315.8z"/>
			</g>
		</g>
		<g>
			<rect x="246.2" y="326.2" class="st2" width="201" height="4.7"/>
			<g>
				<polygon class="st5" points="261.4,330.9 244.7,419.4 249.8,419.4 269,330.9 				"/>
				<polygon class="st5" points="431.9,330.9 448.6,419.4 443.5,419.4 424.3,330.9 				"/>
			</g>
		</g>
		<g>
			<rect x="369.4" y="121.3" class="st6" width="65.1" height="82.6"/>
			<g>
				<rect x="378.6" y="132.9" class="st3" width="10" height="10"/>
				<polygon class="st0" points="379.2,134.1 383.7,138.3 390,130.4 383.7,141.3 377.2,137.2 				"/>
				<rect x="394.3" y="132.9" class="st3" width="32.4" height="1.8"/>
				<rect x="394.3" y="137.9" class="st3" width="22.1" height="1.8"/>
			</g>
			<g>
				<rect x="378.6" y="150.7" class="st3" width="10" height="10"/>
				<polygon class="st0" points="379.2,151.9 383.7,156.1 390,148.1 383.7,159.1 377.2,155 				"/>
				<rect x="394.3" y="150.7" class="st3" width="32.4" height="1.8"/>
				<rect x="394.3" y="155.7" class="st3" width="22.1" height="1.8"/>
			</g>
			<g>
				<rect x="378.6" y="168.5" class="st3" width="10" height="10"/>
				<polygon class="st0" points="379.2,169.7 383.7,173.9 390,165.9 383.7,176.9 377.2,172.7 				"/>
				<rect x="394.3" y="168.5" class="st3" width="32.4" height="1.8"/>
				<rect x="394.3" y="173.5" class="st3" width="22.1" height="1.8"/>
			</g>
		</g>
		<g>
			<rect x="263.7" y="118.1" class="st6" width="13.7" height="37"/>
			<rect x="283.7" y="109.3" class="st6" width="13.7" height="45.8"/>
			<rect x="303.7" y="128.7" class="st6" width="13.7" height="26.4"/>
			<rect x="323.7" y="102.2" class="st6" width="13.7" height="52.9"/>
			<polyline class="st21" points="257.8,95.2 257.8,155.1 343.6,155.1 			"/>
		</g>
		<g>
			<rect x="168.6" y="102.2" class="st6" width="54.1" height="28"/>
			<polygon class="st22" points="168.6,130.3 195.7,111.2 222.8,130.3 			"/>
			<polygon class="st22" points="168.6,102.2 195.7,120.2 222.8,102.2 			"/>
			<polygon class="st6" points="168.6,102.2 195.7,83.9 222.8,102.2 			"/>
			<polygon class="st3" points="195.7,75.1 175.6,75.1 175.6,106.9 195.7,120.2 215.8,106.9 215.8,75.1 			"/>
			<line class="st23" x1="184.5" y1="82.5" x2="210.9" y2="82.5"/>
			<line class="st23" x1="180.5" y1="88.2" x2="210.9" y2="88.2"/>
			<line class="st23" x1="180.5" y1="94" x2="210.9" y2="94"/>
			<line class="st23" x1="180.5" y1="99.8" x2="210.9" y2="99.8"/>
			<line class="st23" x1="180.5" y1="105.5" x2="200.9" y2="105.5"/>
		</g>
		<g>
			<path class="st22" d="M77,111.4c0-9.4,12.3-17,27.5-17s27.5,7.6,27.5,17c0,9.4-12.3,17-27.5,17c-3.7,0-7.3-0.5-10.5-1.3l-6.5,6.5
				l2-8C81.9,122.5,77,117.3,77,111.4z"/>
			<path class="st6" d="M147,106.5c0-9.4-12.3-17-27.5-17s-27.5,7.6-27.5,17c0,9.4,12.3,17,27.5,17c3.7,0,7.3-0.5,10.5-1.3l6.5,6.5
				l-2-8C142,117.7,147,112.5,147,106.5z"/>
			<path class="st0" d="M110.9,110.9c0,1.1-0.9,2-2,2c-1.1,0-2-0.9-2-2c0-1.1,0.9-2,2-2C110,108.9,110.9,109.8,110.9,110.9z"/>
			<path class="st0" d="M121.4,110.9c0,1.1-0.9,2-2,2s-2-0.9-2-2c0-1.1,0.9-2,2-2S121.4,109.8,121.4,110.9z"/>
			<path class="st0" d="M132,110.9c0,1.1-0.9,2-2,2c-1.1,0-2-0.9-2-2c0-1.1,0.9-2,2-2C131.1,108.9,132,109.8,132,110.9z"/>
		</g>
		<path class="st24" d="M175.6,184.2c0,0-1.8,32.8-19.2,51.7"/>
		<path class="st24" d="M147,317.2c0,0,21,14.3,27.6,36.8"/>
		<path class="st25" d="M407.8,231.8c0,3.3-2.6,5.9-5.9,5.9c-3.3,0-5.9-2.6-5.9-5.9s2.6-5.9,5.9-5.9
			C405.2,225.9,407.8,228.6,407.8,231.8z"/>
		<path class="st25" d="M422.3,377.3c0,3.3-2.6,5.9-5.9,5.9s-5.9-2.6-5.9-5.9s2.6-5.9,5.9-5.9S422.3,374,422.3,377.3z"/>
		<path class="st25" d="M96.5,291.4c0,3.3-2.6,5.9-5.9,5.9s-5.9-2.6-5.9-5.9s2.6-5.9,5.9-5.9S96.5,288.1,96.5,291.4z"/>
		<path class="st25" d="M235.4,155.1c0,3.3-2.6,5.9-5.9,5.9c-3.3,0-5.9-2.6-5.9-5.9c0-3.3,2.6-5.9,5.9-5.9
			C232.7,149.2,235.4,151.8,235.4,155.1z"/>
		<path class="st25" d="M346.3,180.1c0,2.3-1.9,4.2-4.2,4.2c-2.3,0-4.2-1.9-4.2-4.2c0-2.3,1.9-4.2,4.2-4.2
			C344.4,175.9,346.3,177.8,346.3,180.1z"/>
		<polygon class="st6" points="434.7,254.3 430.6,258.4 426.6,254.3 424.3,256.7 428.3,260.7 424.3,264.7 426.6,267.1 430.6,263 
			434.7,267.1 437,264.7 432.9,260.7 437,256.7 		"/>
		<polygon class="st6" points="383.6,393.3 379.5,397.4 375.5,393.3 373.2,395.6 377.2,399.7 373.2,403.7 375.5,406 379.5,402 
			383.6,406 385.9,403.7 381.8,399.7 385.9,395.6 		"/>
		<polygon class="st6" points="367,88.8 363,92.9 358.9,88.8 356.6,91.1 360.7,95.2 356.6,99.2 358.9,101.5 363,97.5 367,101.5 
			369.4,99.2 365.3,95.2 369.4,91.1 		"/>
		<polygon class="st6" points="66.1,258.2 62.1,262.2 58,258.2 55.7,260.5 59.7,264.5 55.7,268.6 58,270.9 62.1,266.9 66.1,270.9 
			68.4,268.6 64.4,264.5 68.4,260.5 		"/>
	</g>
	<path class="st8" d="M276.9,284.3c0,0,14.4,32,64.7,37.9h-55.4L276.9,284.3z"/>
</g>
</svg>
